<svg viewBox="0 0 512 512" fill="none" xmlns="http://www.w3.org/2000/svg">
<path d="M416.755 147.588C416.755 152.274 415.318 156.848 412.622 160.747C409.927 164.638 406.099 167.673 401.616 169.462C397.141 171.261 392.208 171.728 387.446 170.811C382.693 169.903 378.317 167.647 374.885 164.335C371.462 161.024 369.126 156.804 368.173 152.205C367.23 147.614 367.715 142.85 369.575 138.527C371.426 134.203 374.571 130.503 378.605 127.9C382.639 125.298 387.383 123.906 392.235 123.906C398.74 123.906 404.976 126.405 409.576 130.849C414.177 135.284 416.755 141.311 416.755 147.588ZM421.589 317.527C265.717 449.605 396.44 423.624 260.182 366.672L199.865 477.429C198.607 480.282 196.505 482.703 193.818 484.406C191.132 486.109 187.996 487.009 184.789 487H183.746C180.377 486.792 177.151 485.591 174.519 483.55C171.886 481.501 169.981 478.726 169.047 475.596L138.803 373.312L32.9323 344.054C29.6708 343.172 26.7866 341.339 24.6571 338.797C22.5277 336.263 21.2608 333.159 21.0361 329.9C20.8115 326.64 21.6381 323.398 23.3992 320.614C25.1693 317.83 27.7839 315.642 30.8837 314.354L146.351 270.726C151.158 168.546 -167.722 318.919 206.856 80.9174C290.785 37.2459 351.245 38.2488 387.446 37.2459C482.715 34.6175 474.601 36.4591 480.45 39.8743C482.84 41.2317 484.808 47.2408 484.808 47.2408C488.267 52.8694 489.435 85.9581 490.801 122.739C492.194 160.427 487.98 242.263 421.589 317.527ZM466.236 58.6277C437.322 52.7051 324.209 46.0995 250.227 96.9128C237.98 105.351 224.332 112.614 214.879 123.906C214.107 134.221 218.321 147.311 222.112 156.969C225.904 166.635 231.834 175.385 239.498 182.604C247.154 189.833 256.354 195.358 266.445 198.79C276.544 202.231 287.299 203.494 297.946 202.508C300.354 202.283 302.771 202.577 305.044 203.364C307.309 204.151 309.375 205.413 311.082 207.056C312.78 208.707 314.092 210.696 314.91 212.883C315.719 215.079 316.024 217.414 315.79 219.731C314.766 230.028 316.087 240.412 319.654 250.157C323.221 259.909 328.945 268.789 336.429 276.181C343.914 283.574 352.98 289.298 362.998 292.955C373.016 296.612 391.247 298.29 401.93 297.529C406.836 297.183 412.829 302.44 436.262 270.691C482.292 224.633 487.944 58.6277 466.236 58.6277Z" fill="currentColor"/>
</svg>
