<svg xmlns="http://www.w3.org/2000/svg" viewBox="0 0 24 24" fill="none">
  <g>
    <path d="M3.5 12C3.5 9.74566 4.39553 7.58365 5.98959 5.98959C7.58365 4.39553 9.74566 3.5 12 3.5C14.2543 3.5 16.4163 4.39553 18.0104 5.98959C19.6045 7.58365 20.5 9.74566 20.5 12C20.5 14.2543 19.6045 16.4163 18.0104 18.0104C16.4163 19.6045 14.2543 20.5 12 20.5C9.74566 20.5 7.58365 19.6045 5.98959 18.0104C4.39553 16.4163 3.5 14.2543 3.5 12L3.5 12Z" stroke="#EFF1F1" stroke-width="2"/>
    <path d="M3.5 12C3.5 10.205 4.06827 8.45603 5.12336 7.00382C6.17845 5.55162 7.66619 4.47071 9.37336 3.91602C11.0805 3.36133 12.9195 3.36133 14.6266 3.91602C16.3338 4.47071 17.8216 5.55162 18.8766 7.00383" stroke="currentColor" stroke-width="2" stroke-linecap="round"/>
    <animateTransform attributeName="transform" type="rotate" dur="1.2s" from="0 12 12" to="360 12 12" repeatCount="indefinite"></animateTransform>
  </g>
</svg>
